<?xml version="1.0" encoding="utf-8"?>
<!-- Generator: Adobe Illustrator 16.0.0, SVG Export Plug-In . SVG Version: 6.00 Build 0)  -->
<!DOCTYPE svg PUBLIC "-//W3C//DTD SVG 1.1//EN" "http://www.w3.org/Graphics/SVG/1.1/DTD/svg11.dtd">
<svg version="1.1" id="Layer_1" xmlns="http://www.w3.org/2000/svg" xmlns:xlink="http://www.w3.org/1999/xlink" x="0px" y="0px"
	 width="283.46px" height="226.77px" viewBox="0 0 283.46 226.77" enable-background="new 0 0 283.46 226.77" xml:space="preserve">
<path d="M240.942,14.173c0-5.714-3.454-10.896-8.77-13.11c-5.315-2.214-11.383-0.975-15.458,3.057l-19.311,19.354
	c-21.26,21.26-50.094,33.219-80.167,33.219h-3.853H99.21H56.691c-15.635,0-28.346,12.711-28.346,28.346v42.52
	c0,15.635,12.711,28.347,28.346,28.347v56.692c0,7.84,6.333,14.173,14.173,14.173H99.21c7.84,0,14.173-6.333,14.173-14.173v-56.692
	h3.853c30.073,0,58.907,11.958,80.167,33.218l19.311,19.312c4.075,4.074,10.143,5.271,15.458,3.056s8.77-7.353,8.77-13.11V133.05
	c8.238-3.897,14.173-14.395,14.173-26.752c0-12.356-5.935-22.854-14.173-26.751V14.173z M212.595,48.145v58.153v58.154
	c-26.043-23.695-60.014-36.895-95.358-36.895h-3.853v-42.52h3.853C152.582,85.038,186.552,71.84,212.595,48.145z"/>
</svg>
