<?xml version="1.0" encoding="utf-8"?>
<!-- Generator: Adobe Illustrator 16.0.0, SVG Export Plug-In . SVG Version: 6.00 Build 0)  -->
<!DOCTYPE svg PUBLIC "-//W3C//DTD SVG 1.1//EN" "http://www.w3.org/Graphics/SVG/1.1/DTD/svg11.dtd">
<svg version="1.1" id="Layer_1" xmlns="http://www.w3.org/2000/svg" xmlns:xlink="http://www.w3.org/1999/xlink" x="0px" y="0px"
	 width="283.46px" height="226.77px" viewBox="0 0 283.46 226.77" enable-background="new 0 0 283.46 226.77" xml:space="preserve">
<path fill="#222222" d="M99.21,0c5.891,0,10.63,4.739,10.63,10.63v17.716h63.779V10.63C173.62,4.74,178.359,0,184.25,0
	s10.63,4.739,10.63,10.63v17.716h17.716c15.635,0,28.347,12.712,28.347,28.347v7.087v21.259v113.386
	c0,15.635-12.712,28.346-28.347,28.346H70.864c-15.635,0-28.346-12.711-28.346-28.346V85.038V63.78v-7.087
	c0-15.635,12.711-28.347,28.346-28.347h17.716V10.63C88.581,4.74,93.32,0,99.21,0z M219.682,85.038H63.778v113.386
	c0,3.897,3.189,7.086,7.086,7.086h141.731c3.898,0,7.087-3.188,7.087-7.086V85.038z M188.236,131.544l-49.606,49.606
	c-4.163,4.163-10.896,4.163-15.015,0l-28.346-28.347c-4.163-4.163-4.163-10.896,0-15.015c4.164-4.119,10.896-4.163,15.015,0
	l20.817,20.816l42.077-42.076c4.162-4.163,10.895-4.163,15.014,0s4.164,10.896,0,15.015H188.236z"/>
</svg>
